<svg width="99" height="56" viewBox="0 0 99 56" fill="none" xmlns="http://www.w3.org/2000/svg">
<rect x="39" y="29" width="2" height="8" rx="1" fill="white"/>
<rect x="55" y="29" width="2" height="8" rx="1" fill="white"/>
<path d="M22 44C25.1667 47.6667 34.9 55 48.5 55C62.1 55 71.8333 47.6667 75 44" stroke="white" stroke-width="2" stroke-linecap="round"/>
<path d="M8.5 25.5C10.3333 17.3333 15.5 1 21.5 1C27.5 1 30.6667 14.6667 31.5 21.5H67.5C69 14.6667 73.5 1 79.5 1C85.5 1 89.3333 17.3333 90.5 25.5" stroke="white" stroke-width="2" stroke-linecap="round"/>
<path d="M14.5 31.5H1.5M16.5 37.5L4 50" stroke="white" stroke-width="2" stroke-linecap="round"/>
<path d="M85 31.5H98M83 37.5L95.5 50" stroke="white" stroke-width="2" stroke-linecap="round"/>
</svg>
